<svg width="15" height="12" viewBox="0 0 15 12" fill="none" xmlns="http://www.w3.org/2000/svg">
    <path fill-rule="evenodd" clip-rule="evenodd" d="M14.7556 1.42275C15.0815 1.09774 15.0815 0.569391 14.7556 0.244382C14.4306 -0.0814607 13.9031 -0.0814607 13.5773 0.244382L4.782 9.03964L2.02276 6.28122C1.69775 5.95538 1.1694 5.95538 0.844388 6.28122C0.518545 6.60707 0.518545 7.13458 0.844388 7.45959L4.15115 10.7672C4.16448 10.7814 4.17698 10.7955 4.19115 10.8089C4.35366 10.9722 4.567 11.053 4.78034 11.053C4.82034 11.053 4.86034 11.0505 4.90034 11.0447C5.07284 11.0205 5.23952 10.9422 5.37202 10.8089C5.38619 10.7955 5.39952 10.7814 5.41202 10.7664L14.7556 1.42275Z" fill="#D84D4D"/>
</svg>
